<?xml version="1.0" standalone="no"?>
<!DOCTYPE svg PUBLIC "-//W3C//DTD SVG 20010904//EN"
 "http://www.w3.org/TR/2001/REC-SVG-20010904/DTD/svg10.dtd">
<svg version="1.0" xmlns="http://www.w3.org/2000/svg"
 width="640.000000pt" height="360.000000pt" viewBox="0 0 640.000000 360.000000"
 preserveAspectRatio="xMidYMid meet">

<g transform="translate(0.000000,360.000000) scale(0.100000,-0.100000)"
fill="#000000" stroke="none">
<path d="M2975 2705 c-146 -28 -276 -89 -402 -190 l-81 -65 -72 0 c-80 0 -126
18 -174 69 -44 46 -63 41 -80 -21 -50 -175 -47 -329 7 -488 35 -100 37 -112
40 -265 4 -170 12 -212 67 -353 58 -150 202 -333 349 -441 58 -43 222 -134
244 -135 4 -1 12 -8 17 -16 5 -8 10 -11 10 -6 0 5 6 3 13 -3 8 -6 16 -8 20 -5
3 3 4 -5 3 -18 -2 -15 2 -25 10 -25 7 0 11 4 9 8 -12 19 26 16 40 -4 14 -19
20 -17 16 7 -1 5 5 4 13 -3 8 -7 20 -10 25 -7 5 4 13 1 17 -5 5 -8 3 -9 -6 -4
-9 5 -11 4 -6 -4 6 -9 11 -9 24 1 14 11 15 10 9 -7 -6 -18 -6 -18 6 -3 12 15
14 15 25 0 10 -15 11 -15 5 2 -6 18 -5 18 23 0 29 -18 29 -18 14 1 -15 19 -14
19 11 3 20 -12 29 -14 38 -5 6 6 26 11 45 12 30 0 33 -2 23 -15 -6 -8 0 -5 15
8 18 17 28 20 33 12 6 -9 10 -9 16 1 7 11 9 11 9 1 0 -10 4 -10 15 2 17 17 49
11 38 -8 -4 -7 -1 -7 9 1 8 7 18 9 23 5 4 -4 3 3 -4 15 -8 16 -8 24 1 29 6 4
8 3 5 -3 -4 -6 0 -16 7 -22 12 -10 14 -8 10 11 -5 21 -4 21 6 4 10 -15 14 -16
21 -5 5 8 9 19 9 24 0 6 -4 4 -9 -3 -6 -11 -10 -10 -15 4 -4 10 -4 15 0 11 4
-4 16 1 27 10 10 10 21 17 23 15 2 -1 37 14 77 34 206 104 408 322 487 526 55
141 63 183 67 353 3 153 5 165 40 265 54 159 57 313 7 488 -17 62 -36 67 -80
21 -48 -51 -94 -69 -174 -69 l-72 0 -81 65 c-130 104 -277 171 -427 195 -89
14 -300 11 -385 -5z m130 -54 c3 -5 2 -12 -3 -15 -5 -3 -9 1 -9 9 0 17 3 19
12 6z m50 -1 c-2 -3 0 -12 5 -20 7 -12 13 -13 27 -3 10 6 17 15 16 20 -1 5 7
9 17 9 11 0 17 -2 15 -4 -2 -3 0 -14 6 -26 10 -20 9 -20 -5 -2 -16 19 -36 14
-36 -9 0 -17 -29 -9 -47 13 -10 12 -15 13 -28 2 -8 -7 -12 -17 -8 -23 4 -6 1
-7 -6 -3 -9 6 -9 12 3 25 9 10 14 20 11 22 -2 3 4 5 15 5 10 0 17 -3 15 -6z
m30 1 c3 -5 2 -12 -3 -15 -5 -3 -9 1 -9 9 0 17 3 19 12 6z m80 0 c3 -5 2 -12
-3 -15 -5 -3 -9 1 -9 9 0 17 3 19 12 6z m61 -4 c6 -3 21 -5 33 -2 12 2 19 0
16 -5 -3 -5 -1 -11 5 -15 5 -3 10 0 10 7 1 7 8 1 16 -14 15 -29 30 -38 21 -13
-4 8 -1 17 6 21 7 4 9 4 5 -1 -4 -4 -3 -14 2 -20 8 -9 6 -14 -4 -18 -9 -4 -22
3 -31 16 -8 12 -16 18 -16 14 -1 -4 -2 -11 -3 -16 -2 -20 -12 -19 -13 1 -1 12
-7 26 -13 32 -8 8 -10 7 -5 -5 4 -10 -2 -19 -19 -27 -20 -9 -27 -8 -38 6 -12
15 -11 16 5 3 18 -14 22 -5 8 18 -8 12 -12 12 -25 2 -9 -7 -13 -18 -9 -24 4
-6 1 -7 -6 -3 -9 6 -9 12 3 25 9 10 14 20 11 23 -7 7 28 3 41 -5z m-323 -16
c-4 -12 -1 -12 10 2 9 10 18 14 21 8 3 -5 0 -12 -6 -15 -7 -4 -3 -4 10 -2 12
2 20 0 17 -4 -3 -5 1 -11 7 -14 7 -3 2 -3 -11 0 -18 5 -22 3 -17 -7 4 -8 0 -5
-8 5 -16 20 -16 20 -17 0 -1 -17 -2 -17 -6 -1 -2 9 -9 15 -14 11 -5 -3 -6 -11
-3 -17 4 -7 4 -9 -1 -5 -4 4 -16 3 -26 -2 -15 -9 -17 -7 -13 17 4 22 3 24 -10
14 -11 -9 -16 -9 -22 0 -4 7 -3 9 4 5 6 -3 13 -2 16 3 7 11 25 9 45 -3 11 -7
13 -5 9 6 -4 8 -1 15 7 15 7 0 11 -7 8 -16z m87 -26 c0 -5 -5 -3 -10 5 -5 8
-10 20 -10 25 0 6 5 3 10 -5 5 -8 10 -19 10 -25z m402 11 c7 4 10 4 6 -1 -4
-4 -2 -15 4 -24 10 -13 10 -14 -2 -3 -21 19 -32 14 -20 -8 6 -11 16 -17 22
-14 7 5 8 2 3 -6 -6 -10 -12 -8 -27 9 -10 13 -15 27 -12 32 3 5 0 9 -5 9 -6 0
-11 5 -11 11 0 8 4 8 15 -1 8 -6 20 -8 27 -4z m-573 -22 c4 3 8 -1 8 -9 0 -13
-4 -12 -19 2 -10 9 -18 21 -18 27 0 6 5 3 11 -7 6 -9 14 -15 18 -13z m306 16
c3 -5 1 -10 -4 -10 -6 0 -11 5 -11 10 0 6 2 10 4 10 3 0 8 -4 11 -10z m-349
-23 c14 -1 37 -27 24 -27 -6 0 -13 7 -16 15 -4 8 -10 13 -15 10 -4 -3 -6 -12
-2 -20 3 -8 0 -15 -5 -15 -15 0 -24 18 -13 25 6 3 8 13 5 23 -5 13 -4 14 4 4
5 -8 13 -14 18 -15z m667 1 c-11 -19 -12 -37 -2 -44 8 -4 13 8 11 27 -1 3 5 6
13 6 8 0 12 -4 9 -9 -3 -4 0 -8 6 -8 6 0 8 -4 5 -10 -3 -5 -1 -10 6 -10 7 0 9
-3 6 -7 -4 -3 -3 -11 1 -18 4 -6 0 -4 -8 5 -9 9 -23 16 -33 14 -27 -4 -47 43
-24 58 17 11 19 10 10 -4z m-712 -30 c8 -15 8 -19 0 -14 -6 4 -11 1 -11 -6 0
-9 -3 -9 -10 2 -8 13 -10 13 -10 -2 0 -15 -34 -35 -52 -30 -5 1 -8 -2 -8 -8 0
-5 -7 -10 -15 -10 -7 0 -19 -8 -24 -17 -6 -10 -11 -13 -11 -7 0 5 5 15 11 21
8 8 8 13 0 18 -6 3 -15 -4 -20 -17 -6 -13 -10 -17 -10 -10 -1 7 -6 10 -11 7
-8 -5 -8 -11 0 -20 7 -9 6 -16 -5 -25 -13 -11 -14 -10 -9 4 3 9 0 23 -7 32
-10 12 -10 15 2 12 8 -2 13 2 12 9 -2 8 4 10 14 6 10 -4 14 -2 10 4 -8 12 18
12 29 0 18 -18 25 -4 8 16 l-19 22 23 -19 c21 -18 31 -11 15 10 -5 5 -1 2 8
-8 15 -15 19 -15 35 -3 14 11 14 13 3 10 -9 -3 -22 2 -30 12 -13 16 -12 17 3
5 13 -11 21 -11 35 -2 16 10 16 11 1 6 -10 -3 -20 0 -24 6 -4 7 -3 8 4 4 7 -4
12 -2 12 5 0 7 8 5 20 -6 22 -20 28 -8 8 14 -10 11 -10 12 -1 7 7 -4 18 -16
24 -28z m789 -23 c0 -8 5 -17 12 -21 8 -5 9 0 6 14 -4 12 -2 20 3 16 5 -3 9
-12 9 -20 0 -8 5 -14 11 -14 5 0 7 5 3 12 -4 7 -3 8 5 4 15 -10 3 -29 -15 -22
-8 3 -14 2 -14 -3 0 -18 15 -20 37 -5 23 14 24 14 22 -3 -2 -10 1 -25 5 -33 7
-11 3 -10 -11 3 -23 20 -37 22 -28 5 4 -7 -7 2 -23 21 -29 32 -50 77 -31 65 5
-3 9 -11 9 -19z m-1234 -123 l73 -4 -49 -62 c-63 -80 -116 -179 -151 -278
l-27 -80 -16 30 c-26 50 -46 151 -46 234 0 68 21 206 35 229 3 5 29 -8 57 -29
47 -33 60 -37 124 -40z m1358 63 c3 3 2 -1 -4 -7 -13 -16 -13 -51 0 -43 6 4 8
11 5 16 -4 5 1 9 10 9 10 0 13 -5 9 -12 -5 -8 -2 -9 11 -4 14 5 16 4 6 -7 -8
-11 -6 -18 9 -32 20 -18 29 -8 10 11 -7 7 -6 11 4 11 8 0 13 -3 11 -7 -6 -10
25 -51 35 -45 11 7 7 -22 -5 -32 -4 -5 -5 -2 0 6 6 11 4 13 -8 8 -9 -3 -19 -1
-23 5 -5 7 -2 8 6 3 8 -5 11 -3 8 6 -3 8 -10 13 -16 12 -6 -2 -22 11 -35 26
-18 22 -27 27 -35 19 -14 -14 -27 14 -18 37 3 8 1 15 -4 15 -6 0 -10 5 -10 11
0 8 4 9 13 0 8 -6 17 -9 21 -6z m431 -73 c27 -131 14 -297 -31 -384 l-16 -30
-27 80 c-35 99 -88 198 -151 278 l-49 62 73 4 c64 3 77 7 121 39 28 20 53 34
57 30 4 -3 14 -39 23 -79z m-1535 58 c0 -5 -5 -12 -10 -15 -6 -4 -8 -10 -5
-15 3 -4 -3 -14 -12 -21 -12 -10 -14 -10 -9 -1 4 6 3 12 -2 12 -6 0 -13 7 -16
16 -3 8 -2 13 3 9 5 -3 11 -2 14 2 2 5 2 2 0 -5 -1 -7 2 -10 8 -6 6 3 9 14 6
24 -3 13 0 17 9 13 8 -3 14 -9 14 -13z m-56 -45 c5 -15 -9 -22 -17 -7 -2 4 -2
2 -1 -5 2 -6 -4 -17 -12 -24 -12 -10 -14 -9 -9 5 3 9 7 23 10 31 2 8 9 15 14
15 5 0 11 -7 15 -15z m6 -29 c0 -3 -4 -8 -10 -11 -5 -3 -10 -1 -10 4 0 6 5 11
10 11 6 0 10 -2 10 -4z m-40 -29 c11 -5 9 -6 -4 -4 -11 1 -21 9 -23 17 -3 10
-2 11 4 4 4 -6 15 -14 23 -17z m-32 -22 c-3 -3 -9 2 -12 12 -6 14 -5 15 5 6 7
-7 10 -15 7 -18z m1281 -313 c0 -14 -2 -14 -9 3 -5 11 -9 15 -9 8 -1 -7 13
-34 29 -60 17 -26 30 -53 30 -61 0 -8 5 -10 12 -6 7 4 2 -7 -11 -24 -12 -18
-25 -32 -29 -32 -4 0 -51 -9 -105 -20 -123 -25 -182 -26 -173 -5 3 9 -1 18 -9
21 -8 4 -13 10 -10 14 3 5 1 11 -4 14 -5 4 -8 -1 -7 -10 1 -8 7 -19 14 -23 7
-4 8 -12 2 -21 -8 -13 -10 -12 -10 3 0 10 -4 16 -8 13 -8 -4 -8 10 -3 58 1 5
4 6 8 3 3 -4 11 -1 17 7 6 7 52 42 101 77 50 35 92 67 93 72 2 4 10 3 18 -4
12 -10 13 -9 8 6 -7 16 -5 16 25 1 17 -9 31 -24 30 -34z m-1175 18 c-4 8 12
-1 37 -21 24 -19 75 -54 112 -77 83 -52 102 -71 103 -101 1 -23 0 -23 -13 -6
-11 17 -13 17 -13 2 0 -14 -10 -16 -77 -13 -44 2 -111 13 -153 26 -41 13 -78
24 -82 24 -5 1 -8 4 -8 9 0 4 0 18 0 32 0 14 5 24 11 23 6 -2 13 5 14 15 2 9
-1 15 -6 11 -5 -3 -7 -10 -4 -15 4 -5 4 -9 1 -9 -3 0 -10 8 -15 18 -6 12 -5
23 6 37 11 14 14 15 10 3 -6 -17 16 -20 30 -3 4 4 2 5 -4 1 -9 -5 -13 0 -13
16 0 18 2 20 10 8 8 -12 10 -10 10 9 0 24 0 24 15 5 13 -18 14 -18 8 6 -5 25
-5 25 11 5 10 -11 14 -13 10 -5z m1199 -47 c-4 -11 -3 -14 5 -9 8 4 12 0 12
-11 0 -11 5 -24 12 -31 6 -6 9 -14 6 -17 -7 -8 -57 78 -51 88 8 14 22 -3 16
-20z m-965 -385 c-8 -7 -34 -41 -58 -75 -24 -35 -46 -63 -49 -63 -4 0 -35 29
-70 64 l-63 64 78 7 c44 3 86 8 94 9 8 2 30 4 49 5 29 1 32 -1 19 -11z m835
-7 l38 -6 -64 -63 -63 -63 -40 58 c-21 32 -47 66 -57 76 -18 18 -16 18 65 12
46 -4 100 -10 121 -14z"/>
<path d="M3320 2634 c8 -10 15 -20 16 -22 1 -2 4 1 7 5 3 5 -4 15 -16 23 -21
12 -21 12 -7 -6z"/>
<path d="M2956 2615 c-3 -8 -1 -15 4 -15 6 0 10 7 10 15 0 8 -2 15 -4 15 -2 0
-6 -7 -10 -15z"/>
<path d="M2844 805 c1 -8 8 -21 16 -28 12 -10 12 -9 2 4 -6 9 -9 18 -6 21 3 3
1 9 -4 12 -6 3 -9 -1 -8 -9z"/>
<path d="M3496 812 c-10 -16 9 -30 21 -17 10 10 9 14 -2 19 -8 3 -16 2 -19 -2z"/>
<path d="M2870 807 c-1 -22 21 -46 38 -40 15 6 16 5 2 -13 -14 -18 -14 -18 3
-5 14 11 15 17 5 28 -9 12 -13 12 -16 3 -3 -8 -10 -4 -18 11 -7 13 -13 20 -14
16z"/>
<path d="M2970 750 c0 -5 5 -10 11 -10 5 0 7 5 4 10 -3 6 -8 10 -11 10 -2 0
-4 -4 -4 -10z"/>
</g>
</svg>
